<?xml version="1.0" standalone="no"?><!DOCTYPE svg PUBLIC "-//W3C//DTD SVG 1.1//EN" "http://www.w3.org/Graphics/SVG/1.1/DTD/svg11.dtd"><svg t="1745522903868" class="icon" viewBox="0 0 1024 1024" version="1.1" xmlns="http://www.w3.org/2000/svg" p-id="23292" xmlns:xlink="http://www.w3.org/1999/xlink" width="200" height="200"><path d="M787.79 65.033c21.135 11.39 36.72 30.532 44.224 50.5a32 32 0 0 1 1.013 3.198c14.51 55.761 12.699 125.02-1.541 201.692a817.18 817.18 0 0 1-2.035 10.565l-0.71 3.526-0.727 3.527a897.573 897.573 0 0 1-6.337 28.128l-0.852 3.49-0.864 3.483a934.44 934.44 0 0 1-1.318 5.204l-0.893 3.456c-0.599 2.3-1.205 4.592-1.818 6.875l-0.924 3.416a929.472 929.472 0 0 1-2.354 8.475l-0.957 3.36a909.737 909.737 0 0 1-2.43 8.32l-0.985 3.292a865.887 865.887 0 0 1-4.52 14.535l-1.02 3.163c-0.17 0.524-0.342 1.048-0.513 1.57l-1.029 3.122a795.69 795.69 0 0 1-0.516 1.55l-1.036 3.08-1.04 3.049a734.827 734.827 0 0 1-2.616 7.487l-1.052 2.939a676.556 676.556 0 0 1-1.583 4.343l-1.058 2.852c-0.353 0.945-0.706 1.883-1.06 2.816l-1.061 2.778c-0.354 0.92-0.708 1.833-1.062 2.74l-1.063 2.701-0.702 1.767C860.957 527.938 907 600.898 907 683.1 907 844.968 728.468 971 512.5 971S118 844.968 118 683.1c0-82.538 46.42-155.759 120.553-207.703l-0.485-1.213a610.15 610.15 0 0 1-2.148-5.485l-1.073-2.798-0.536-1.412-1.07-2.851c-0.357-0.956-0.713-1.918-1.07-2.885l-1.066-2.918-0.532-1.47-1.062-2.967c-0.177-0.497-0.354-0.995-0.53-1.495l-1.058-3.012-1.054-3.042-0.525-1.532-1.048-3.084a833.78 833.78 0 0 1-2.082-6.25l-1.033-3.164-1.027-3.188a879.85 879.85 0 0 1-1.021-3.212l-1.015-3.234a901.033 901.033 0 0 1-1.008-3.257l-1.002-3.277a926.861 926.861 0 0 1-3.443-11.623l-0.965-3.36c-0.32-1.123-0.639-2.249-0.956-3.377l-0.947-3.39-0.47-1.702-0.931-3.412-0.922-3.425-0.911-3.436-0.9-3.448-0.889-3.457a933.888 933.888 0 0 1-2.594-10.423l-0.84-3.488a882.947 882.947 0 0 1-6.216-28.026l-0.709-3.504a811.88 811.88 0 0 1-1.369-7c-14.67-76.839-16.75-146.059-2.238-201.846a32 32 0 0 1 1.013-3.199c7.502-19.967 23.083-39.11 44.214-50.5 27.104-14.612 59.87-15.006 94.858 0.515 8.819 3.911 18.667 11.01 27.417 20.028 10.132 10.442 18.6 23.141 24.535 37.837l0.316 0.794 0.207 0.417c2.614 5.332 4.656 11.51 6.228 18.653l0.273 1.271c0.267 1.28 0.52 2.591 0.76 3.933l0.235 1.352 0.114 0.684 0.221 1.383 0.107 0.7 0.208 1.414 0.2 1.436 0.19 1.458 0.182 1.478 0.173 1.5c0.029 0.253 0.057 0.505 0.084 0.759l0.161 1.533c0.027 0.257 0.053 0.516 0.078 0.775l0.15 1.566 0.14 1.588 0.134 1.61 0.126 1.634 0.119 1.655 0.056 0.837 0.108 1.69 0.1 1.712 0.093 1.736 0.087 1.76 0.079 1.782 0.073 1.806 0.066 1.83 0.087 2.79 0.05 1.89 0.045 1.914 0.038 1.938 0.048 3.007 0.026 2.317 0.018 2.349 0.005 1.185 0.005 2.395-0.004 2.426-0.012 2.456-0.02 2.486-0.03 2.516-0.037 2.547-0.046 2.576-0.054 2.606-0.062 2.636-0.07 2.664-0.08 2.694-0.086 2.723-0.095 2.75-0.103 2.78-0.169 4.224-0.187 4.286-0.134 2.892-0.142 2.92-0.15 2.946-0.239 4.472-0.169 3.015-0.267 4.572-0.285 4.632-0.3 4.691-0.21 3.16-0.33 4.788-0.228 3.224-0.356 4.883c-0.408 5.506-0.844 11.086-1.306 16.732l-0.47 5.667-0.243 2.85-0.497 5.73c-0.505 5.75-1.035 11.56-1.59 17.42l-0.56 5.878-0.578 5.91-0.592 5.941-0.606 5.97-0.541 5.229-0.546 5.2-0.552 5.171-0.277 2.573-0.839 7.667-0.563 5.064-0.567 5.025-0.856 7.455-0.45 3.803C421.325 401.03 466.047 395.2 512.5 395.2c47.766 0 93.7 6.165 136.278 17.52l-0.645-4.645-0.635-4.653-0.634-4.708-0.633-4.76-0.631-4.81-0.629-4.856-0.625-4.9-0.312-2.467-0.62-4.961-0.616-5-0.611-5.033-0.606-5.067-0.3-2.544-0.596-5.11-0.335-2.907-0.656-5.79c-2.161-19.254-4.042-38.003-5.574-55.943l-0.36-4.284-0.26-3.178-0.253-3.152-0.244-3.127-0.235-3.1-0.337-4.602-0.214-3.034-0.206-3.008-0.197-2.982-0.188-2.954-0.267-4.38-0.166-2.885-0.157-2.858-0.15-2.83-0.205-4.192-0.126-2.76-0.117-2.73-0.108-2.702-0.099-2.673-0.09-2.644-0.08-2.614-0.07-2.585-0.061-2.556-0.027-1.266-0.047-2.51-0.037-2.48-0.028-2.45-0.018-2.42-0.008-2.388v-2.358l0.012-2.326 0.01-1.152 0.024-2.128 0.03-1.95 0.036-1.927 0.043-1.902 0.05-1.878 0.058-1.854c0.01-0.307 0.02-0.613 0.032-0.918l0.069-1.818 0.076-1.795 0.085-1.77 0.092-1.749 0.1-1.724 0.054-0.854 0.113-1.69 0.121-1.668 0.064-0.825 0.134-1.633 0.07-0.809 0.148-1.6 0.157-1.577 0.165-1.555c0.029-0.258 0.057-0.514 0.087-0.77l0.18-1.522c0.03-0.252 0.061-0.503 0.093-0.754l0.194-1.49 0.203-1.468c0.07-0.486 0.141-0.968 0.214-1.447l0.223-1.426 0.234-1.405c1.672-9.761 4.102-17.984 7.509-24.894l0.198-0.398 0.312-0.777c5.813-14.39 14.056-26.865 23.91-37.18l0.631-0.656c8.752-9.018 18.602-16.116 27.42-20.026 34.995-15.52 67.766-15.125 94.873-0.516zM512.5 459.2C328.061 459.2 182 562.31 182 683.1S328.061 907 512.5 907 843 803.89 843 683.1 696.939 459.2 512.5 459.2z m0 254.013c23.553 0 42.647 19.095 42.647 42.65s-19.094 42.65-42.647 42.65c-23.553 0-42.647-19.095-42.647-42.65s19.094-42.65 42.647-42.65z m-127.941-127.95c23.553 0 42.647 19.095 42.647 42.65s-19.094 42.65-42.647 42.65c-23.553 0-42.647-19.095-42.647-42.65s19.094-42.65 42.647-42.65z m255.882 0c23.553 0 42.647 19.095 42.647 42.65s-19.094 42.65-42.647 42.65c-23.553 0-42.647-19.095-42.647-42.65s19.094-42.65 42.647-42.65z m81.912-462.681l-1.148 0.467c-0.578 0.24-1.162 0.488-1.752 0.745l-0.454 0.199-0.219 0.122-0.112 0.066a23.1 23.1 0 0 0-1.734 1.146c-1.746 1.259-3.637 2.89-5.511 4.82-4.658 4.8-8.601 10.773-11.363 17.828l-0.281 0.733a32 32 0 0 1-2.078 4.455l0.129-0.227-0.156 0.442-0.147 0.447-0.157 0.517-0.165 0.586c-0.515 1.907-1.01 4.375-1.45 7.341l-0.172 1.213a139.09 139.09 0 0 0-0.547 4.577l-0.138 1.397-0.13 1.436c-0.022 0.243-0.043 0.487-0.063 0.733l-0.119 1.494c-0.02 0.252-0.038 0.506-0.056 0.762l-0.107 1.551-0.1 1.59-0.09 1.627-0.083 1.664c-0.014 0.28-0.027 0.563-0.039 0.846l-0.071 1.72-0.063 1.756c-0.01 0.295-0.02 0.593-0.028 0.891l-0.051 1.81-0.043 1.846-0.018 0.936-0.03 1.898-0.023 1.982-0.015 2.064-0.005 2.097 0.003 2.13 0.013 2.161 0.02 2.194 0.03 2.225 0.04 2.257 0.047 2.289 0.056 2.319 0.031 1.171 0.069 2.365 0.077 2.396 0.086 2.426 0.094 2.455 0.158 3.74 0.115 2.528 0.123 2.558 0.132 2.587 0.14 2.615 0.148 2.644 0.156 2.671 0.165 2.699 0.261 4.1 0.185 2.767 0.192 2.794 0.408 5.667 0.216 2.873 0.338 4.357 0.355 4.414 0.247 2.974a1822.21 1822.21 0 0 0 2.316 25.416l0.517 5.208c0.262 2.614 0.532 5.242 0.807 7.882l0.559 5.3 0.575 5.332 0.59 5.364c0.3 2.69 0.605 5.39 0.916 8.1l0.602 5.214 0.586 4.978 0.591 4.949 0.298 2.463 0.6 4.902 0.3 2.438 0.607 4.849 0.61 4.81 0.613 4.767 0.616 4.723 0.617 4.677 0.62 4.626 0.62 4.574 0.91 6.622 0.72 5.14 0.814 5.705 1.149 7.837a31.895 31.895 0 0 1-0.677 12.904 435.382 435.382 0 0 1 17.303 7.918l0.571-1.524 0.963-2.583 0.482-1.305 0.962-2.637c0.64-1.769 1.28-3.56 1.92-5.373l0.956-2.735c0.478-1.375 0.954-2.762 1.43-4.16l0.95-2.812 0.947-2.84a752.63 752.63 0 0 0 1.881-5.761l0.934-2.92 0.93-2.946 0.924-2.97 0.92-2.991 0.912-3.015 0.454-1.515 0.904-3.046 0.45-1.53 0.892-3.075c0.297-1.029 0.592-2.06 0.886-3.094l0.879-3.11 0.436-1.562 0.866-3.136c0.43-1.571 0.859-3.148 1.283-4.73l0.844-3.171 0.835-3.184 0.414-1.596 0.82-3.201 0.406-1.604 0.804-3.216 0.793-3.225 0.782-3.233 0.387-1.62 0.765-3.242c0.253-1.082 0.503-2.165 0.752-3.249l0.74-3.253a806.175 806.175 0 0 0 4.158-19.565l0.643-3.259 0.627-3.256c0.207-1.085 0.41-2.17 0.612-3.253 12.425-66.896 14.193-126.373 3.216-171.165l-0.205-0.82-0.115-0.257c-2.548-5.596-7.589-11.502-13.61-14.89l-0.422-0.232c-8.483-4.572-19.5-5.01-35.073 1.21z m-453.69-1.851l-0.634 0.312c-0.105 0.053-0.21 0.107-0.313 0.162l-0.312 0.165c-6.191 3.338-11.398 9.371-14.01 15.088l-0.132 0.292-0.201 0.812c-10.825 44.223-8.978 102.829 3.462 168.968l0.388 2.048 0.31 1.618 0.634 3.238 0.649 3.242c0.328 1.622 0.662 3.245 1 4.868l0.687 3.248 0.7 3.247 0.714 3.248c0.12 0.54 0.24 1.082 0.362 1.623l0.734 3.245c0.247 1.081 0.496 2.162 0.747 3.242l0.76 3.238 0.384 1.618 0.778 3.231 0.79 3.226c0.265 1.074 0.532 2.147 0.8 3.218l0.813 3.211 0.41 1.602 0.828 3.198c0.277 1.064 0.557 2.127 0.838 3.187l0.848 3.177 0.857 3.165 0.866 3.152c0.436 1.573 0.874 3.14 1.316 4.702l0.888 3.116c0.148 0.518 0.297 1.036 0.447 1.552l0.899 3.092 0.906 3.075 0.456 1.53 0.917 3.048 0.924 3.027 0.464 1.506 0.932 2.997 0.938 2.974 0.943 2.952 0.948 2.929 0.952 2.903c0.318 0.964 0.637 1.923 0.957 2.878l0.96 2.852 0.964 2.825c0.16 0.468 0.322 0.935 0.483 1.402l0.968 2.781 0.97 2.753 0.487 1.364 0.974 2.707 0.975 2.674 0.489 1.325 0.977 2.625 0.964 2.558a438.13 438.13 0 0 1 17.965-8.152l0.688-5.387 0.78-6.3 0.69-5.65 0.564-4.693 0.564-4.746 0.562-4.795 0.561-4.842 0.56-4.886 0.555-4.929 0.554-4.967 0.822-7.52 0.543-5.055 0.538-5.086 0.533-5.113 0.551-5.375 0.564-5.597 0.55-5.567 0.536-5.538c0.089-0.92 0.176-1.84 0.263-2.757l0.515-5.49 0.252-2.731 0.493-5.438c0.243-2.709 0.48-5.405 0.711-8.086l0.455-5.342 0.44-5.301 0.422-5.259c0.208-2.618 0.409-5.22 0.604-7.804l0.304-4.095 0.325-4.513 0.311-4.458 0.296-4.403 0.371-5.784 0.344-5.683 0.162-2.803 0.23-4.156 0.215-4.096 0.134-2.697 0.188-3.996 0.117-2.63 0.162-3.893 0.146-3.831 0.088-2.519 0.081-2.49 0.074-2.462 0.097-3.638 0.056-2.39 0.048-2.36 0.041-2.33 0.034-2.3 0.025-2.27 0.025-3.35 0.007-2.194 0.001-1.085-0.004-2.148-0.012-2.117-0.02-2.085-0.027-2.006-0.033-1.926-0.063-2.825-0.05-1.842-0.058-1.807-0.065-1.773-0.072-1.739-0.078-1.703-0.086-1.669-0.092-1.633-0.1-1.597-0.106-1.561-0.113-1.525-0.12-1.489-0.127-1.451c-0.021-0.24-0.043-0.477-0.066-0.712l-0.137-1.397-0.07-0.684-0.148-1.34-0.076-0.655-0.157-1.283-0.162-1.23-0.165-1.17c-0.112-0.765-0.227-1.498-0.345-2.198l-0.179-1.026-0.09-0.495-0.185-0.951a54.298 54.298 0 0 0-0.57-2.546l-0.175-0.673-0.152-0.543-0.145-0.482-0.136-0.419-0.142-0.401c0-0.003 0-0.003 0.002-0.001l0.179 0.318-0.334-0.608a32 32 0 0 1-1.484-3.184l-0.255-0.655c-2.77-7.374-6.823-13.595-11.64-18.56-1.873-1.93-3.763-3.56-5.508-4.819a26.972 26.972 0 0 0-1.056-0.725l-0.464-0.293-0.424-0.25-0.119-0.065-0.455-0.2c-3.54-1.545-6.855-2.762-9.965-3.677l-1.03-0.294-1.014-0.272c-10.237-2.653-18.185-1.913-24.679 1.182z" p-id="23293" fill="#1296db"></path></svg>