<?xml version="1.0" standalone="no"?><!DOCTYPE svg PUBLIC "-//W3C//DTD SVG 1.1//EN" "http://www.w3.org/Graphics/SVG/1.1/DTD/svg11.dtd"><svg t="1744816713355" class="icon" viewBox="0 0 1325 1024" version="1.1" xmlns="http://www.w3.org/2000/svg" p-id="8747" xmlns:xlink="http://www.w3.org/1999/xlink" width="258.7890625" height="200"><path d="M734.268235 542.117647a11.504941 11.504941 0 0 1-8.252235-3.011765 10.480941 10.480941 0 0 1-3.192471-7.830588l1.084236-4.698353 130.16847-332.980706c3.614118-8.673882 10.24-12.890353 19.576471-12.890353h59.693176c9.396706 0 15.902118 4.216471 19.576471 12.890353l130.228706 332.980706 1.084235 4.698353a10.179765 10.179765 0 0 1-3.553882 7.830588 11.625412 11.625412 0 0 1-7.830588 3.011765h-48.308706c-7.589647 0-12.830118-3.252706-15.661177-9.818353L983.762824 469.835294h-160.587295l-24.997647 62.524235c-2.951529 6.625882-8.192 9.818353-15.661176 9.818353h-48.368941z m107.941647-132.156235h122.639059l-61.259294-158.960941-61.379765 159.021176z" fill="#1296db" p-id="8748"></path><path d="M203.414588 1024a37.225412 37.225412 0 0 1-22.889412-7.830588 33.430588 33.430588 0 0 1-12.40847-34.213647c8.975059-38.851765 14.938353-72.884706 17.648941-101.135059 1.445647-16.022588 2.228706-31.744 1.927529-46.742588h-74.089411C50.898824 834.078118 0 785.347765 0 725.473882V409.660235c0-59.873882 51.019294-108.423529 113.603765-108.423529h555.851294C732.099765 301.176471 783.058824 349.846588 783.058824 409.6v315.813647c0 59.873882-51.019294 108.604235-113.603765 108.604235H397.372235a500.555294 500.555294 0 0 1-62.704941 101.436236c-29.515294 36.321882-68.668235 65.054118-116.615529 85.353411a35.960471 35.960471 0 0 1-14.637177 3.132236zM113.603765 370.326588c-22.768941 0-41.321412 17.709176-41.321412 39.454118v315.813647c0 21.744941 18.552471 39.454118 41.321412 39.454118h108.242823c18.552471 0 34.093176 13.432471 35.900236 31.021176a442.729412 442.729412 0 0 1 0 91.136c-0.903529 9.637647-2.228706 19.877647-3.734589 30.599529a222.870588 222.870588 0 0 0 23.491765-24.274823c23.792941-29.274353 44.875294-65.295059 62.644706-106.917647a36.201412 36.201412 0 0 1 33.611294-21.443765h295.875765c22.708706 0 41.261176-17.709176 41.261176-39.454117V409.901176c0-21.684706-18.552471-39.454118-41.261176-39.454117H113.603765v-0.120471z" fill="#1296db" p-id="8749"></path><path d="M481.641412 722.823529a13.854118 13.854118 0 0 1-8.613647-2.529882 24.696471 24.696471 0 0 1-5.963294-6.445176l-13.131295-17.106824a104.086588 104.086588 0 0 1-32.647529 4.818824c-36.442353 0-65.114353-9.035294-86.136471-26.864942-21.022118-17.829647-32.225882-44.152471-33.551058-78.908235C301.296941 588.559059 301.176471 577.355294 301.176471 562.356706c0-14.998588 0.120471-26.322824 0.421647-33.852235 1.325176-34.153412 12.528941-60.476235 33.852235-79.028706C356.713412 430.923294 385.264941 421.647059 421.165176 421.647059c35.84 0 64.391529 9.276235 85.654589 27.828706 21.263059 18.552471 32.527059 44.875294 33.852235 79.028706 0.542118 15.058824 0.722824 26.322824 0.722824 33.852235 0 7.830588-0.301176 18.853647-0.722824 33.430588-1.626353 31.683765-10.962824 56.380235-28.129882 74.209882l28.431058 40.719059a10.541176 10.541176 0 0 1 1.144471 3.855059v1.204706a6.264471 6.264471 0 0 1-2.349176 4.818824 7.529412 7.529412 0 0 1-5.360942 2.228705h-52.766117z m-60.355765-79.631058c13.251765 0 23.913412-4.156235 31.924706-12.227765s12.227765-20.600471 12.649412-37.526588c0.602353-14.998588 0.722824-25.780706 0.722823-32.286118 0-6.445176-0.240941-16.865882-0.722823-31.503059-0.542118-16.745412-4.758588-29.274353-12.649412-37.526588-7.890824-8.192-18.672941-12.167529-31.924706-12.167529a43.068235 43.068235 0 0 0-31.924706 12.167529c-8.011294 8.131765-12.227765 20.660706-12.709647 37.526588-0.301176 7.288471-0.421647 17.829647-0.421647 31.503059 0 14.034824 0.120471 24.756706 0.421647 32.286118 0.602353 16.745412 4.818824 29.274353 12.709647 37.526588a42.586353 42.586353 0 0 0 31.924706 12.227765z" fill="#1296db" p-id="8750"></path><path d="M1215.006118 0H531.937882C471.100235 0 421.707294 50.718118 421.707294 113.242353v206.727529h70.174118V113.242353c0-22.708706 17.950118-41.200941 40.05647-41.200941h683.068236c22.046118 0 40.056471 18.492235 40.05647 41.200941v441.163294a40.719059 40.719059 0 0 1-40.05647 41.200941h-142.516706a35.237647 35.237647 0 0 0-34.093177 27.407059c-9.999059 41.803294-10.179765 86.859294-0.301176 133.842824 2.891294 14.336 6.505412 28.370824 10.601412 42.164705-27.286588-16.022588-48.188235-33.731765-62.524236-53.187764a344.606118 344.606118 0 0 1-57.765647-122.88c-4.336941-17.588706-24.455529-22.588235-33.972706-27.226353H750.351059v71.920941h118.061176a416.587294 416.587294 0 0 0 62.162824 121.735529c34.936471 47.284706 91.437176 84.028235 172.694588 112.218353a35.056941 35.056941 0 0 0 38.189177-10.902588 36.803765 36.803765 0 0 0 4.035764-40.297412 415.442824 415.442824 0 0 1-38.550588-108.604235 250.398118 250.398118 0 0 1-4.818824-74.029176h112.880942c60.656941 0 110.230588-50.718118 110.230588-113.182118V113.242353C1325.176471 50.898824 1275.783529 0 1214.945882 0" fill="#1296db" p-id="8751"></path></svg>